<svg id="_x33_0" enable-background="new 0 0 64 64" height="512" viewBox="0 0 64 64" width="512" xmlns="http://www.w3.org/2000/svg"><g><path d="m51 25.921 12.744-8.921-12.744-8.921v4.921h-10v8h10zm-8-6.921v-4h10v-3.08l7.256 5.08-7.256 5.08v-3.08z"/><path d="m28.256 33 12.744 8.921v-4.921h10v-8h-10v-4.921zm20.744-2v4h-10v3.08l-7.256-5.08 7.256-5.08v3.08z"/><path d="m28.027 27.387c1.917-1.917 2.973-4.466 2.973-7.206 0-2.277-.783-4.511-2.206-6.289-1.47-1.838-3.663-2.892-6.017-2.892-2.058 0-3.993.801-5.448 2.257l-1.329 1.329-1.329-1.329c-1.455-1.456-3.39-2.257-5.448-2.257-2.354 0-4.547 1.054-6.017 2.892-1.423 1.778-2.206 4.011-2.206 6.318 0 2.711 1.056 5.26 2.973 7.177l12.027 12.027zm-25.027-7.206c0-1.825.628-3.615 1.768-5.04 1.088-1.361 2.712-2.141 4.455-2.141 1.524 0 2.957.593 4.034 1.671l2.743 2.743 2.743-2.743c1.078-1.078 2.51-1.671 4.034-1.671 1.743 0 3.367.78 4.455 2.141 1.14 1.425 1.768 3.214 1.768 5.069 0 2.177-.848 4.224-2.387 5.763l-10.613 10.613-10.613-10.613c-1.539-1.539-2.387-3.586-2.387-5.792z"/><path d="m41.18 51.015-1.758-1.465c-1.973-1.645-4.474-2.55-7.043-2.55h-7.379c-1.492 0-2.78.83-3.467 2.044l-1.77-2.361c-.791-1.054-2.05-1.683-3.367-1.683-1.163 0-2.191.589-2.803 1.484-.794-.93-1.967-1.484-3.197-1.484-1.873 0-3.396 1.523-3.396 3.396 0 .56.141 1.116.406 1.61l6.386 9.149c1.683 2.407 4.44 3.845 7.377 3.845h41.831v-14h-19c-1.307 0-2.41.846-2.82 2.015zm-24.784-4.015c.691 0 1.352.33 1.767.883l2.915 3.887c.087.443.258.852.479 1.23h-1.057c-1.252 0-2.448-.598-3.2-1.6l-2.294-3.059c.029-.744.639-1.341 1.39-1.341zm4.773 14c-2.284 0-4.429-1.118-5.737-2.99l-6.288-8.997c-.094-.192-.144-.404-.144-.617 0-.77.626-1.396 1.396-1.396.691 0 1.352.33 1.767.883l3.537 4.717c1.127 1.503 2.921 2.4 4.8 2.4h8.264c1.308 0 2.618.309 3.789.895l.895-1.789c-1.448-.724-3.067-1.106-4.684-1.106h-3.764c-1.103 0-2-.897-2-2s.897-2 2-2h7.379c2.102 0 4.147.741 5.762 2.086l2.859 2.382v7.532zm21.831-9c0-.551.449-1 1-1h1v10h-2zm4-1h4v10h-4zm14 10h-8v-10h8z"/></g></svg>