<?xml version="1.0" encoding="UTF-8" standalone="no"?>
<!DOCTYPE svg PUBLIC "-//W3C//DTD SVG 1.1//EN" "http://www.w3.org/Graphics/SVG/1.1/DTD/svg11.dtd">
<svg width="100%" height="100%" viewBox="0 0 512 512" version="1.1" xmlns="http://www.w3.org/2000/svg" xmlns:xlink="http://www.w3.org/1999/xlink" xml:space="preserve" xmlns:serif="http://www.serif.com/" style="fill-rule:evenodd;clip-rule:evenodd;stroke-linejoin:round;stroke-miterlimit:2;">
    <g>
        <g>
            <path d="M338.387,205.974L338.387,166.413C310.552,166.219 249.194,162.626 173.768,138.851L173.768,205.974C173.768,254.811 210.691,294.543 256.077,294.543C301.462,294.543 338.387,254.811 338.387,205.974Z" style="fill-rule:nonzero;"/>
            <path d="M120.007,370.173L172.482,355.923C183.247,352.999 191.911,344.981 195.659,334.476L203.998,311.1C168.173,291.241 143.679,251.573 143.679,205.974L143.679,117.968C143.679,113.086 146.048,108.507 150.033,105.687C154.018,102.866 159.125,102.155 163.729,103.78C268.757,140.833 351.649,136.112 352.47,136.061C356.612,135.796 360.693,137.264 363.723,140.108C366.752,142.952 368.477,146.921 368.477,151.076L368.477,205.974C368.477,250.005 345.641,288.51 311.816,308.987L320.347,335.013C323.765,345.448 332.061,353.638 342.537,356.926L396.574,373.884C399.05,374.661 401.455,375.59 403.787,376.646L403.787,144.596C403.786,64.737 339.049,-0 259.19,-0C179.333,-0 108.576,64.737 108.576,144.596L108.576,374.489C112.203,372.711 116.023,371.255 120.007,370.173Z" style="fill-rule:nonzero;"/>
        </g>
        <g>
            <path d="M411.684,444.216C409.085,430.775 406.923,408.005 392.765,403.562L339.281,387.436L339.267,387.436L333.528,385.635C313.806,379.445 298.189,364.024 291.754,344.383L284.06,320.909C275.112,323.339 265.736,324.631 256.079,324.631C247.848,324.631 239.824,323.684 232.092,321.902L224,344.585C216.945,364.363 200.634,379.456 180.369,384.96L177.394,385.767L177.122,385.764L124.647,400.015C108.724,404.338 105.478,428.745 101.775,444.214L411.684,444.214L411.684,444.216Z" style="fill-rule:nonzero;"/>
        </g>
    </g>
</svg>
